<mxfile host="app.diagrams.net" modified="2021-02-22T10:13:47.621Z" agent="5.0 (Macintosh; Intel Mac OS X 10_15_6) AppleWebKit/537.36 (KHTML, like Gecko) Chrome/86.0.4240.183 Safari/537.36" etag="m41e5jpTQ-5B3Xsh7j-W" version="14.4.2" type="github">
  <diagram id="6KYExervl5Y9bxnm4WXe" name="第 1 页">
    <mxGraphModel dx="872" dy="1080" grid="1" gridSize="10" guides="1" tooltips="1" connect="1" arrows="1" fold="1" page="1" pageScale="1" pageWidth="827" pageHeight="1169" math="0" shadow="0">
      <root>
        <mxCell id="0" />
        <mxCell id="1" parent="0" />
        <mxCell id="onclh9LmPdHnoWCxRAZE-1" value="mall-api（内网）" style="rounded=1;whiteSpace=wrap;html=1;" vertex="1" parent="1">
          <mxGeometry x="360" y="690" width="120" height="60" as="geometry" />
        </mxCell>
        <mxCell id="onclh9LmPdHnoWCxRAZE-3" value="" style="endArrow=none;dashed=1;html=1;" edge="1" parent="1">
          <mxGeometry width="50" height="50" relative="1" as="geometry">
            <mxPoint x="40" y="340" as="sourcePoint" />
            <mxPoint x="800" y="340" as="targetPoint" />
          </mxGeometry>
        </mxCell>
        <mxCell id="onclh9LmPdHnoWCxRAZE-5" value="" style="endArrow=none;dashed=1;html=1;" edge="1" parent="1">
          <mxGeometry width="50" height="50" relative="1" as="geometry">
            <mxPoint x="40" y="550" as="sourcePoint" />
            <mxPoint x="800" y="550" as="targetPoint" />
          </mxGeometry>
        </mxCell>
        <mxCell id="onclh9LmPdHnoWCxRAZE-6" value="网关" style="text;html=1;align=center;verticalAlign=middle;resizable=0;points=[];autosize=1;" vertex="1" parent="1">
          <mxGeometry x="40" y="360" width="40" height="20" as="geometry" />
        </mxCell>
        <mxCell id="onclh9LmPdHnoWCxRAZE-7" value="" style="endArrow=classic;html=1;entryX=0.5;entryY=0;entryDx=0;entryDy=0;" edge="1" parent="1" target="onclh9LmPdHnoWCxRAZE-9">
          <mxGeometry relative="1" as="geometry">
            <mxPoint x="420" y="140" as="sourcePoint" />
            <mxPoint x="420" y="400" as="targetPoint" />
          </mxGeometry>
        </mxCell>
        <mxCell id="onclh9LmPdHnoWCxRAZE-8" value="外部请求" style="edgeLabel;resizable=0;html=1;align=center;verticalAlign=middle;" connectable="0" vertex="1" parent="onclh9LmPdHnoWCxRAZE-7">
          <mxGeometry relative="1" as="geometry" />
        </mxCell>
        <mxCell id="onclh9LmPdHnoWCxRAZE-10" style="edgeStyle=orthogonalEdgeStyle;rounded=0;orthogonalLoop=1;jettySize=auto;html=1;exitX=0.5;exitY=1;exitDx=0;exitDy=0;entryX=0.5;entryY=0;entryDx=0;entryDy=0;" edge="1" parent="1" source="onclh9LmPdHnoWCxRAZE-9" target="onclh9LmPdHnoWCxRAZE-1">
          <mxGeometry relative="1" as="geometry" />
        </mxCell>
        <mxCell id="onclh9LmPdHnoWCxRAZE-9" value="读取domain在header中设置渠道编号，解析session&lt;br&gt;在header中设置用户编号，，等其他参数后转发" style="shape=parallelogram;perimeter=parallelogramPerimeter;whiteSpace=wrap;html=1;fixedSize=1;" vertex="1" parent="1">
          <mxGeometry x="270" y="400" width="300" height="80" as="geometry" />
        </mxCell>
      </root>
    </mxGraphModel>
  </diagram>
</mxfile>
